<svg preserveAspectRatio="none" width="100%" height="100%" overflow="visible" style="display: block;" viewBox="0 0 40 40" fill="none" xmlns="http://www.w3.org/2000/svg">
<g id="Group 37">
<circle id="Ellipse 16" cx="20" cy="20" r="20" fill="var(--fill-0, white)"/>
<path id="Vector" d="M13 27.15V25.25H14.75V18.6C14.75 17.2858 15.1146 16.1183 15.8438 15.0974C16.5729 14.0764 17.5208 13.4073 18.6875 13.09V12.425C18.6875 12.0292 18.8152 11.6929 19.0707 11.4161C19.3262 11.1393 19.636 11.0006 20 11C20.364 10.9994 20.674 11.1381 20.9301 11.4161C21.1862 11.6941 21.3137 12.0304 21.3125 12.425V13.09C22.4792 13.4067 23.4271 14.0758 24.1562 15.0974C24.8854 16.1189 25.25 17.2865 25.25 18.6V25.25H27V27.15H13ZM20 30C19.5187 30 19.1069 29.8141 18.7645 29.4423C18.4221 29.0706 18.2506 28.6231 18.25 28.1H21.75C21.75 28.6225 21.5788 29.0699 21.2364 29.4423C20.894 29.8147 20.4818 30.0006 20 30Z" fill="var(--fill-0, black)"/>
</g>
</svg>
