<svg preserveAspectRatio="none" width="100%" height="100%" overflow="visible" style="display: block;" viewBox="0 0 40 40" fill="none" xmlns="http://www.w3.org/2000/svg">
<g id="Group 30">
<circle id="Ellipse 16" cx="20" cy="20" r="20" fill="var(--fill-0, white)"/>
<path id="Vector" d="M25.4 25.4C24.401 25.4 23.6 26.201 23.6 27.2C23.6 27.6774 23.7896 28.1352 24.1272 28.4728C24.4648 28.8104 24.9226 29 25.4 29C25.8774 29 26.3352 28.8104 26.6728 28.4728C27.0104 28.1352 27.2 27.6774 27.2 27.2C27.2 26.7226 27.0104 26.2648 26.6728 25.9272C26.3352 25.5896 25.8774 25.4 25.4 25.4ZM11 11V12.8H12.8L16.04 19.631L14.816 21.836C14.681 22.088 14.6 22.385 14.6 22.7C14.6 23.1774 14.7896 23.6352 15.1272 23.9728C15.4648 24.3104 15.9226 24.5 16.4 24.5H27.2V22.7H16.778C16.7183 22.7 16.6611 22.6763 16.6189 22.6341C16.5767 22.5919 16.553 22.5347 16.553 22.475C16.553 22.43 16.562 22.394 16.58 22.367L17.39 20.9H24.095C24.77 20.9 25.364 20.522 25.67 19.973L28.892 14.15C28.955 14.006 29 13.853 29 13.7C29 13.4613 28.9052 13.2324 28.7364 13.0636C28.5676 12.8948 28.3387 12.8 28.1 12.8H14.789L13.943 11M16.4 25.4C15.401 25.4 14.6 26.201 14.6 27.2C14.6 27.6774 14.7896 28.1352 15.1272 28.4728C15.4648 28.8104 15.9226 29 16.4 29C16.8774 29 17.3352 28.8104 17.6728 28.4728C18.0104 28.1352 18.2 27.6774 18.2 27.2C18.2 26.7226 18.0104 26.2648 17.6728 25.9272C17.3352 25.5896 16.8774 25.4 16.4 25.4Z" fill="var(--fill-0, black)"/>
</g>
</svg>
