<svg preserveAspectRatio="none" width="100%" height="100%" overflow="visible" style="display: block;" viewBox="0 0 40 40" fill="none" xmlns="http://www.w3.org/2000/svg">
<g id="Group 36">
<circle id="Ellipse 16" cx="20" cy="20" r="20" fill="var(--fill-0, white)"/>
<path id="Vector" d="M20 19.75C19.337 19.75 18.7011 19.4866 18.2322 19.0178C17.7634 18.5489 17.5 17.913 17.5 17.25C17.5 16.587 17.7634 15.9511 18.2322 15.4822C18.7011 15.0134 19.337 14.75 20 14.75C20.663 14.75 21.2989 15.0134 21.7678 15.4822C22.2366 15.9511 22.5 16.587 22.5 17.25C22.5 17.5783 22.4353 17.9034 22.3097 18.2067C22.1841 18.51 21.9999 18.7856 21.7678 19.0178C21.5356 19.2499 21.26 19.4341 20.9567 19.5597C20.6534 19.6853 20.3283 19.75 20 19.75ZM20 10.25C18.1435 10.25 16.363 10.9875 15.0503 12.3003C13.7375 13.613 13 15.3935 13 17.25C13 22.5 20 30.25 20 30.25C20 30.25 27 22.5 27 17.25C27 15.3935 26.2625 13.613 24.9497 12.3003C23.637 10.9875 21.8565 10.25 20 10.25Z" fill="var(--fill-0, black)"/>
</g>
</svg>
